<svg width="20" height="20" viewBox="0 0 20 20" fill="none" xmlns="http://www.w3.org/2000/svg">
<path d="M9.6286 6.65698C9.57785 6.6552 9.52705 6.65351 9.47642 6.65107C9.43567 6.64907 9.395 6.64645 9.35433 6.644C9.30487 6.64102 9.25536 6.638 9.20598 6.63436C9.16482 6.63129 9.12376 6.62769 9.08269 6.62413C9.03402 6.61996 8.98536 6.61564 8.93678 6.61076C8.89536 6.60658 8.85407 6.60196 8.81274 6.59733C8.76478 6.59191 8.71687 6.58636 8.66909 6.58031C8.62749 6.57507 8.58603 6.56942 8.54456 6.56365C8.49718 6.55707 8.4498 6.55022 8.40256 6.54298C8.36109 6.53662 8.31967 6.53 8.27834 6.52316C8.23123 6.51538 8.18425 6.50725 8.13731 6.4988C8.09607 6.49138 8.05492 6.48378 8.01376 6.47587C7.96692 6.46685 7.92012 6.45742 7.8734 6.44778C7.83252 6.43933 7.79163 6.43076 7.75087 6.42182C7.70416 6.4116 7.65754 6.4008 7.61096 6.38991C7.57047 6.38045 7.53003 6.37093 7.48967 6.36098C7.44292 6.34942 7.39625 6.33729 7.34963 6.32507C7.30981 6.31462 7.26994 6.30427 7.23021 6.29338C7.18318 6.28045 7.13634 6.26685 7.08945 6.25325C7.05047 6.24196 7.01145 6.2308 6.97256 6.21898C6.92496 6.20453 6.87754 6.18933 6.83012 6.17422C6.79225 6.16218 6.75438 6.15036 6.71665 6.13782C6.66812 6.12173 6.61976 6.10476 6.57141 6.08791C6.5351 6.07525 6.4987 6.06298 6.46252 6.04991C6.41199 6.03169 6.36172 6.01249 6.31141 5.99342C6.27776 5.98067 6.24394 5.9684 6.21039 5.95529C6.15461 5.93351 6.09919 5.91067 6.04372 5.88791C6.0159 5.87649 5.9879 5.8656 5.96016 5.85391C5.87705 5.81898 5.7943 5.78302 5.7119 5.74587C5.63261 5.71009 5.5539 5.67338 5.47572 5.63578C5.44954 5.6232 5.42381 5.61 5.39777 5.5972C5.34594 5.57178 5.29408 5.54636 5.24279 5.52014C5.21221 5.50445 5.18194 5.48818 5.15154 5.47223C5.10537 5.44805 5.0591 5.42391 5.01337 5.39907C4.98114 5.38156 4.94932 5.36347 4.91728 5.34565C4.87381 5.32147 4.83039 5.29734 4.78732 5.27254C4.75461 5.25369 4.72221 5.23431 4.68968 5.21511C4.6479 5.19045 4.60612 5.16578 4.56475 5.14054C4.53195 5.12054 4.49946 5.10014 4.46688 5.07978C4.42639 5.05445 4.3859 5.02907 4.34577 5.00325C4.31315 4.98223 4.28079 4.96085 4.24839 4.93947C4.20888 4.91338 4.16946 4.88716 4.1303 4.86054C4.09804 4.83858 4.06599 4.81636 4.03399 4.79409C3.99528 4.76712 3.95675 4.73996 3.91839 4.71245C3.88666 4.68969 3.85501 4.66672 3.82355 4.64356C3.78555 4.61565 3.74772 4.58747 3.71012 4.55903C3.67893 4.53543 3.64786 4.51178 3.61693 4.48783C3.57955 4.45894 3.54248 4.42965 3.5055 4.40023C3.47497 4.37596 3.44453 4.35165 3.41426 4.32703C3.37741 4.29698 3.34088 4.26658 3.30439 4.23601C3.2747 4.21112 3.24493 4.18627 3.2155 4.16103C3.17902 4.12974 3.14288 4.09801 3.10679 4.06618C3.07804 4.04085 3.04919 4.01565 3.0207 3.98996C2.98426 3.95716 2.94826 3.92374 2.91222 3.89036C2.88475 3.8649 2.8571 3.83965 2.82986 3.81387C2.79288 3.7789 2.75644 3.74325 2.7199 3.7077C2.6943 3.68272 2.66844 3.65805 2.64306 3.63281C2.60426 3.59427 2.56608 3.55499 2.52782 3.51574C2.50533 3.49267 2.48253 3.46996 2.46022 3.44667C2.45746 3.44383 2.45462 3.44103 2.45186 3.43814C0.868842 5.25814 0 7.57769 0 9.9975C0 10.0696 0.000933343 10.1433 0.00275556 10.2197H9.77776V6.66191C9.76776 6.66173 9.75789 6.66116 9.74789 6.66093C9.70807 6.66 9.66838 6.65836 9.6286 6.65698Z" fill="#D0F7C6"/>
<path d="M10.3527 6.21265C10.4013 6.21092 10.4499 6.20932 10.4983 6.20687C10.5357 6.20501 10.5731 6.20243 10.6104 6.20016C10.658 6.19723 10.7056 6.19434 10.7531 6.19074C10.7908 6.1879 10.8284 6.18443 10.8661 6.18114C10.9132 6.17701 10.9602 6.17287 11.0071 6.16808C11.0449 6.16425 11.0825 6.1599 11.1202 6.15563C11.1669 6.15034 11.2135 6.14496 11.2601 6.13896C11.2978 6.13416 11.3354 6.12892 11.373 6.12368C11.4193 6.11719 11.4657 6.11056 11.5119 6.10345C11.5494 6.09772 11.5868 6.09159 11.6242 6.08541C11.6704 6.07776 11.7165 6.06985 11.7626 6.06159C11.7998 6.05488 11.8369 6.04794 11.8739 6.04088C11.92 6.03203 11.966 6.02288 12.0119 6.01336C12.0487 6.00576 12.0855 5.99803 12.1221 5.99003C12.1682 5.97999 12.214 5.96954 12.2599 5.95888C12.2962 5.95043 12.3325 5.9419 12.3686 5.93305C12.4147 5.92176 12.4607 5.90999 12.5066 5.89808C12.5422 5.88883 12.5779 5.87954 12.6133 5.86994C12.6597 5.85736 12.7058 5.84421 12.7519 5.83097C12.7867 5.82096 12.8215 5.8111 12.8561 5.80074C12.903 5.78674 12.9496 5.77208 12.9963 5.75741C13.0298 5.74683 13.0635 5.73643 13.0969 5.72554C13.1447 5.70994 13.1922 5.69363 13.2396 5.67736C13.2717 5.66634 13.3038 5.65563 13.3358 5.6443C13.3851 5.62679 13.4341 5.60852 13.4831 5.59025C13.5129 5.57919 13.5427 5.56848 13.5723 5.55714C13.625 5.53692 13.6774 5.51581 13.7298 5.49474C13.7554 5.48443 13.7811 5.47457 13.8066 5.46408C13.8695 5.43817 13.932 5.41128 13.9944 5.38408C14.009 5.37768 14.0238 5.37172 14.0384 5.36528C14.116 5.33097 14.1932 5.29572 14.27 5.25945C14.2758 5.25674 14.2815 5.25381 14.2873 5.25106C14.3573 5.21781 14.4271 5.18386 14.4964 5.14897C14.5194 5.13737 14.5421 5.12519 14.565 5.11345C14.6168 5.08688 14.6687 5.06026 14.72 5.03279C14.7477 5.01799 14.7749 5.00261 14.8024 4.98754C14.8487 4.96226 14.8949 4.93701 14.9408 4.91097C14.9703 4.89417 14.9996 4.87679 15.029 4.85968C15.0723 4.83452 15.1156 4.80941 15.1585 4.78359C15.189 4.76523 15.2192 4.74639 15.2494 4.72772C15.2908 4.70226 15.3321 4.67679 15.3731 4.6507C15.404 4.63101 15.4347 4.61088 15.4654 4.59083C15.5052 4.56492 15.545 4.53888 15.5845 4.51235C15.6154 4.4915 15.6462 4.47026 15.677 4.44901C15.7157 4.42239 15.7542 4.39568 15.7926 4.36848C15.8234 4.34657 15.8541 4.32435 15.8847 4.30208C15.9224 4.2747 15.9599 4.24715 15.9972 4.21923C16.0278 4.19635 16.0581 4.17323 16.0885 4.14999C16.1252 4.12181 16.1618 4.09337 16.1983 4.06466C16.2285 4.04084 16.2585 4.01688 16.2884 3.9927C16.3244 3.96368 16.3601 3.93435 16.3957 3.90475C16.4254 3.88008 16.455 3.85532 16.4844 3.83026C16.5196 3.80035 16.5546 3.77004 16.5894 3.73955C16.6185 3.71408 16.6476 3.68853 16.6764 3.6627C16.711 3.63177 16.7452 3.60039 16.7794 3.56893C16.8077 3.54284 16.836 3.51675 16.8641 3.4903C16.8982 3.45817 16.9318 3.42559 16.9655 3.39297C16.993 3.36626 17.0206 3.33968 17.0478 3.31261C17.0815 3.27924 17.1147 3.24528 17.1478 3.21142C17.1743 3.18439 17.2009 3.1575 17.2271 3.13017C17.234 3.12293 17.2408 3.11546 17.2477 3.10822C15.4158 1.18235 12.8772 0.0594221 10.2222 0V6.21674C10.229 6.21661 10.2358 6.21665 10.2427 6.21648C10.2794 6.21563 10.316 6.21399 10.3527 6.21265Z" fill="#D0F7C6"/>
<path d="M2.75208 3.10817C2.75896 3.11542 2.76563 3.12279 2.77252 3.12999C2.79888 3.15755 2.82568 3.18462 2.8523 3.21181C2.88532 3.2455 2.9183 3.27928 2.95176 3.31248C2.97919 3.33968 3.00701 3.36648 3.03474 3.39337C3.06812 3.42577 3.10154 3.45813 3.13536 3.48999C3.16367 3.5167 3.19234 3.54306 3.22092 3.56941C3.25479 3.60061 3.28874 3.63173 3.32301 3.66239C3.35216 3.68852 3.38159 3.71435 3.41105 3.74012C3.4455 3.77021 3.48003 3.80021 3.51483 3.82981C3.54461 3.85515 3.57461 3.88026 3.6047 3.90524C3.6399 3.93448 3.67523 3.9635 3.71078 3.99221C3.7411 4.0167 3.77158 4.04101 3.80216 4.06515C3.83812 4.0935 3.87425 4.12155 3.91052 4.14937C3.94132 4.17297 3.97221 4.19648 4.00323 4.21972C4.04003 4.24723 4.07705 4.27439 4.11421 4.30141C4.14532 4.32403 4.17643 4.34661 4.20781 4.36888C4.24563 4.39572 4.28367 4.42208 4.32181 4.44835C4.35309 4.4699 4.38434 4.49146 4.4158 4.51261C4.45474 4.53879 4.49398 4.56448 4.53327 4.59008C4.56452 4.61043 4.59572 4.63092 4.62714 4.65097C4.66749 4.67666 4.7082 4.70172 4.74892 4.72683C4.7798 4.7459 4.8106 4.7651 4.84167 4.78381C4.88389 4.80919 4.92647 4.8339 4.96905 4.8587C4.99914 4.87621 5.02914 4.89399 5.0594 4.91119C5.10447 4.93679 5.14994 4.96154 5.19536 4.98643C5.22363 5.0019 5.25167 5.01772 5.28007 5.03292C5.33043 5.05985 5.38123 5.08594 5.43203 5.11203C5.45598 5.1243 5.47967 5.13705 5.50371 5.1491C5.57065 5.18279 5.63807 5.21554 5.70576 5.24777C5.71394 5.25163 5.72194 5.25577 5.73011 5.25963C5.80669 5.29577 5.88371 5.33097 5.96118 5.36519C5.97714 5.37221 5.99331 5.37879 6.00927 5.38577C6.07029 5.41234 6.1314 5.43865 6.19296 5.46403C6.21913 5.47483 6.24558 5.48501 6.27185 5.49554C6.32358 5.51634 6.37527 5.53719 6.42731 5.55714C6.45731 5.56865 6.48758 5.5795 6.51771 5.5907C6.56633 5.60879 6.61496 5.62692 6.66384 5.6443C6.69607 5.65572 6.72851 5.66656 6.76087 5.67763C6.80807 5.69381 6.85527 5.71003 6.90269 5.72554C6.93633 5.73656 6.9702 5.74696 7.00398 5.75763C7.05042 5.77225 7.09682 5.78683 7.14349 5.80079C7.17829 5.81119 7.21327 5.82114 7.24815 5.83114C7.29411 5.84434 7.34011 5.85745 7.38629 5.86999C7.42193 5.87968 7.45767 5.88892 7.49344 5.89821C7.53927 5.91012 7.58509 5.92185 7.63109 5.93314C7.66731 5.94203 7.70366 5.95056 7.74002 5.95901C7.7858 5.96968 7.83162 5.98012 7.87757 5.99012C7.91433 5.99816 7.95113 6.0059 7.98798 6.0135C8.03384 6.02296 8.0798 6.03212 8.12584 6.04096C8.16295 6.04808 8.20011 6.05501 8.23735 6.06172C8.28335 6.07003 8.32944 6.0779 8.37557 6.08554C8.413 6.09176 8.45051 6.09785 8.48802 6.10363C8.53424 6.11074 8.58055 6.11736 8.62691 6.12385C8.66451 6.1291 8.70215 6.1343 8.73984 6.13914C8.78637 6.1451 8.83304 6.15048 8.87966 6.15581C8.91735 6.16008 8.955 6.16443 8.99277 6.16825C9.03971 6.17305 9.08673 6.17719 9.13375 6.18127C9.17144 6.18456 9.20908 6.18803 9.24686 6.19088C9.29433 6.19452 9.34188 6.19736 9.38944 6.2003C9.42682 6.20261 9.46419 6.20514 9.50162 6.20701C9.55006 6.20945 9.59864 6.21105 9.64717 6.21279C9.68388 6.21407 9.72055 6.21572 9.75731 6.21661C9.7641 6.21679 9.77095 6.21674 9.77775 6.21688V0C7.12269 0.0594221 4.58416 1.18235 2.75208 3.10817Z" fill="#D0F7C6"/>
<path d="M2.66107 16.7892C2.66458 16.7857 2.66818 16.7824 2.67164 16.7789C2.694 16.7569 2.71684 16.7354 2.73938 16.7135C2.77711 16.677 2.81475 16.6404 2.85293 16.6045C2.87795 16.581 2.90333 16.558 2.92858 16.5347C2.96484 16.5013 3.00106 16.4678 3.03778 16.4349C3.06458 16.4109 3.09169 16.3873 3.11866 16.3636C3.1544 16.3323 3.19004 16.3009 3.22613 16.2701C3.25422 16.2461 3.28258 16.2225 3.31089 16.1989C3.34649 16.1691 3.38217 16.1393 3.41813 16.1101C3.44729 16.0864 3.47662 16.063 3.506 16.0396C3.54173 16.0112 3.57751 15.9829 3.61355 15.9549C3.6436 15.9317 3.67382 15.9087 3.70409 15.8857C3.74013 15.8585 3.77626 15.8313 3.81262 15.8045C3.84333 15.7819 3.87417 15.7595 3.90511 15.7372C3.94164 15.7109 3.97835 15.6848 4.01524 15.659C4.04653 15.6371 4.07791 15.6153 4.10942 15.5937C4.14653 15.5683 4.18386 15.5432 4.22128 15.5183C4.25306 15.4972 4.28484 15.4761 4.31684 15.4553C4.35471 15.4308 4.39275 15.4066 4.43093 15.3825C4.46306 15.3622 4.49519 15.3419 4.52755 15.322C4.56622 15.2982 4.60519 15.2749 4.64422 15.2516C4.67653 15.2322 4.70884 15.2128 4.74137 15.1938C4.78119 15.1706 4.82137 15.1479 4.8615 15.1252C4.89373 15.107 4.92586 15.0886 4.9583 15.0707C4.99968 15.0479 5.04142 15.0257 5.0831 15.0035C5.11488 14.9865 5.14648 14.9693 5.17848 14.9526C5.22239 14.9298 5.2667 14.9077 5.31097 14.8854C5.34115 14.8702 5.37115 14.8548 5.4015 14.8399C5.45115 14.8155 5.50128 14.792 5.55137 14.7684C5.57684 14.7564 5.60204 14.744 5.62764 14.7322C5.70355 14.6972 5.7799 14.663 5.85684 14.6297C5.93675 14.5951 6.01697 14.5617 6.0975 14.5292C6.12328 14.5188 6.14919 14.5091 6.17501 14.4989C6.2299 14.4773 6.28475 14.4555 6.3399 14.4349C6.37123 14.4231 6.40279 14.4121 6.43421 14.4007C6.48412 14.3825 6.53399 14.3642 6.58412 14.3469C6.61799 14.3351 6.65203 14.324 6.68599 14.3126C6.73395 14.2966 6.78186 14.2804 6.83003 14.2651C6.86541 14.2538 6.90097 14.2431 6.93643 14.2322C6.98346 14.2178 7.03043 14.2033 7.07759 14.1896C7.11403 14.179 7.15066 14.1689 7.18723 14.1587C7.23363 14.1457 7.28008 14.1328 7.3267 14.1205C7.36403 14.1105 7.4015 14.1012 7.43897 14.0917C7.48505 14.0801 7.53119 14.0686 7.57741 14.0575C7.61537 14.0485 7.65341 14.0399 7.69145 14.0313C7.7375 14.0209 7.78359 14.0107 7.82976 14.0009C7.86817 13.9928 7.90661 13.985 7.9451 13.9773C7.99119 13.9681 8.03736 13.9592 8.08359 13.9506C8.12239 13.9434 8.16123 13.9365 8.20008 13.9297C8.2463 13.9217 8.29256 13.914 8.33892 13.9065C8.37794 13.9003 8.41705 13.8943 8.45621 13.8885C8.50265 13.8816 8.54919 13.8752 8.59576 13.8689C8.63501 13.8637 8.67425 13.8585 8.71354 13.8537C8.7603 13.8479 8.80714 13.8427 8.85403 13.8377C8.89336 13.8333 8.93265 13.8291 8.97203 13.8253C9.01918 13.8207 9.06643 13.8167 9.11372 13.8127C9.15305 13.8095 9.19238 13.8061 9.23181 13.8032C9.27949 13.7998 9.32732 13.797 9.37518 13.7942C9.41425 13.7919 9.45327 13.7894 9.49243 13.7876C9.54118 13.7853 9.59003 13.7837 9.63883 13.7821C9.67727 13.7808 9.71567 13.7792 9.75416 13.7783C9.76212 13.7781 9.77003 13.7777 9.77798 13.7775V10.6642H0.022583C0.173516 12.9479 1.10338 15.1068 2.66107 16.7892Z" fill="#D0F7C6"/>
<path d="M10.2222 13.7776C10.2301 13.7777 10.238 13.7782 10.2459 13.7784C10.2845 13.7793 10.3228 13.7809 10.3613 13.7821C10.4102 13.7837 10.459 13.7853 10.5077 13.7876C10.5469 13.7895 10.5859 13.792 10.625 13.7942C10.6728 13.797 10.7207 13.7998 10.7684 13.8033C10.8079 13.8061 10.8471 13.8095 10.8865 13.8128C10.9337 13.8168 10.981 13.8208 11.0282 13.8253C11.0676 13.8292 11.1069 13.8334 11.1462 13.8377C11.1931 13.8428 11.2399 13.848 11.2867 13.8537C11.326 13.8585 11.3652 13.8637 11.4044 13.869C11.451 13.8753 11.4975 13.8817 11.5439 13.8885C11.5831 13.8943 11.6222 13.9004 11.6613 13.9066C11.7076 13.914 11.7539 13.9217 11.8001 13.9297C11.839 13.9365 11.8778 13.9434 11.9166 13.9506C11.9628 13.9592 12.0089 13.9681 12.0551 13.9773C12.0935 13.985 12.1319 13.9929 12.1704 14.0009C12.2166 14.0107 12.2627 14.0209 12.3087 14.0313C12.3467 14.0399 12.3848 14.0486 12.4227 14.0576C12.469 14.0686 12.5151 14.0801 12.5611 14.0918C12.5986 14.1013 12.6361 14.1106 12.6734 14.1205C12.72 14.1328 12.7664 14.1457 12.8129 14.1587C12.8495 14.1689 12.886 14.179 12.9225 14.1897C12.9697 14.2034 13.0167 14.2179 13.0637 14.2323C13.0992 14.2432 13.1347 14.2538 13.1701 14.2651C13.2183 14.2805 13.2662 14.2966 13.3141 14.3127C13.3481 14.3241 13.3822 14.3351 13.416 14.3469C13.4662 14.3643 13.516 14.3825 13.5659 14.4007C13.5974 14.4121 13.6289 14.4232 13.6602 14.4349C13.7154 14.4556 13.7702 14.4773 13.8251 14.4989C13.8509 14.5091 13.8769 14.5188 13.9026 14.5292C13.9832 14.5617 14.0634 14.5951 14.1433 14.6297C14.2202 14.663 14.2965 14.6973 14.3724 14.7323C14.3982 14.7442 14.4237 14.7567 14.4494 14.7688C14.4992 14.7922 14.549 14.8157 14.5984 14.8399C14.629 14.8549 14.6591 14.8705 14.6895 14.8857C14.7336 14.9079 14.7778 14.93 14.8215 14.9527C14.8536 14.9694 14.8854 14.9867 14.9173 15.0037C14.9588 15.0259 15.0004 15.048 15.0416 15.0707C15.0742 15.0887 15.1065 15.1071 15.1389 15.1255C15.1788 15.1481 15.2188 15.1706 15.2584 15.1937C15.2911 15.2129 15.3237 15.2324 15.3562 15.2518C15.395 15.275 15.4337 15.2982 15.4721 15.3219C15.5047 15.342 15.5371 15.3624 15.5695 15.3829C15.6074 15.4067 15.645 15.4307 15.6826 15.455C15.715 15.4761 15.7472 15.4974 15.7794 15.5188C15.8163 15.5434 15.8532 15.5682 15.8899 15.5933C15.9218 15.6152 15.9536 15.6372 15.9853 15.6594C16.0217 15.6849 16.058 15.7107 16.0941 15.7367C16.1254 15.7593 16.1567 15.782 16.1878 15.8049C16.2238 15.8314 16.2594 15.8582 16.295 15.8852C16.3257 15.9084 16.3563 15.9317 16.3867 15.9553C16.4224 15.9829 16.4577 16.0109 16.493 16.0389C16.5228 16.0626 16.5526 16.0864 16.5822 16.1105C16.6177 16.1393 16.6527 16.1686 16.6878 16.1979C16.7166 16.222 16.7456 16.246 16.7742 16.2705C16.8097 16.3009 16.8448 16.3317 16.88 16.3626C16.9075 16.3867 16.9351 16.4107 16.9624 16.4352C16.9986 16.4676 17.0343 16.5007 17.0702 16.5337C17.0958 16.5573 17.1217 16.5808 17.1471 16.6047C17.185 16.6404 17.2224 16.6767 17.2599 16.713C17.2826 16.735 17.3056 16.7567 17.3282 16.7789C17.3317 16.7824 17.3352 16.7857 17.3387 16.7892C18.8964 15.1069 19.8262 12.948 19.9772 10.6642H10.2222V13.7776Z" fill="#D0F7C6"/>
<path d="M17.5482 3.43829C17.5456 3.44109 17.5428 3.44376 17.5401 3.44656C17.5172 3.47052 17.4938 3.49385 17.4707 3.51754C17.433 3.55616 17.3954 3.59487 17.3572 3.63283C17.3317 3.6582 17.3057 3.68296 17.28 3.70803C17.2436 3.74358 17.2071 3.77918 17.1702 3.81411C17.1431 3.83976 17.1156 3.86487 17.0883 3.89016C17.0521 3.92367 17.0159 3.95723 16.9793 3.9902C16.951 4.01567 16.9224 4.04069 16.8938 4.06585C16.8575 4.09789 16.8211 4.12989 16.7843 4.1614C16.7552 4.18638 16.7257 4.21096 16.6963 4.23558C16.6595 4.26638 16.6226 4.29714 16.5854 4.3274C16.5556 4.35171 16.5255 4.37571 16.4953 4.39971C16.458 4.42949 16.4204 4.45909 16.3826 4.48834C16.3521 4.51194 16.3214 4.53531 16.2906 4.5586C16.2526 4.58736 16.2144 4.61589 16.176 4.64407C16.1449 4.66691 16.1137 4.68958 16.0824 4.71207C16.0436 4.73989 16.0045 4.76745 15.9653 4.79469C15.9338 4.81665 15.9022 4.83851 15.8705 4.86016C15.8308 4.88714 15.7908 4.91376 15.7507 4.94025C15.7189 4.96122 15.6871 4.98225 15.655 5.00291C15.6143 5.02918 15.5732 5.05491 15.532 5.08065C15.5001 5.10065 15.4681 5.12069 15.4359 5.14033C15.3939 5.16593 15.3515 5.191 15.3091 5.21598C15.2772 5.23482 15.2454 5.2538 15.2133 5.27233C15.1696 5.29753 15.1253 5.32207 15.0812 5.34665C15.0498 5.36411 15.0187 5.3818 14.9872 5.39891C14.9408 5.42411 14.8938 5.4486 14.847 5.47313C14.8172 5.48878 14.7876 5.50469 14.7576 5.52007C14.7055 5.54669 14.6529 5.57247 14.6003 5.59829C14.575 5.61069 14.55 5.62353 14.5246 5.63576C14.4463 5.67336 14.3676 5.71016 14.2882 5.74593C14.2058 5.78309 14.1231 5.81904 14.04 5.85398C14.0122 5.86567 13.9841 5.87655 13.9562 5.88802C13.9008 5.91078 13.8454 5.93358 13.7897 5.95535C13.7561 5.96842 13.7224 5.98069 13.6888 5.9934C13.6385 6.01247 13.5881 6.03167 13.5375 6.04993C13.5013 6.063 13.4649 6.07531 13.4285 6.08793C13.3802 6.10473 13.3319 6.12171 13.2834 6.1378C13.2456 6.15033 13.2077 6.16215 13.1698 6.1742C13.1225 6.18931 13.075 6.20451 13.0275 6.21891C12.9886 6.23069 12.9496 6.24184 12.9106 6.25318C12.8637 6.26678 12.8169 6.28038 12.7698 6.29331C12.7301 6.30424 12.6903 6.3146 12.6505 6.325C12.6038 6.33722 12.5571 6.34935 12.5103 6.36091C12.4701 6.37087 12.4296 6.38038 12.3892 6.38984C12.3426 6.40078 12.2959 6.41153 12.2492 6.4218C12.2084 6.43073 12.1676 6.43931 12.1267 6.44775C12.0799 6.4574 12.0331 6.46687 11.9862 6.47589C11.9451 6.4838 11.9039 6.4914 11.8627 6.49882C11.8158 6.50726 11.7688 6.5154 11.7218 6.52318C11.6803 6.53002 11.639 6.53664 11.5975 6.543C11.5502 6.55024 11.5029 6.55704 11.4555 6.56366C11.414 6.5694 11.3726 6.57504 11.331 6.58033C11.2831 6.58638 11.2353 6.59193 11.1873 6.59735C11.146 6.60198 11.1047 6.6066 11.0633 6.61078C11.0147 6.61566 10.966 6.61998 10.9174 6.62415C10.8763 6.62771 10.8352 6.63131 10.7941 6.63438C10.7448 6.63806 10.6952 6.64104 10.6458 6.64402C10.6051 6.64651 10.5644 6.64909 10.5237 6.65109C10.473 6.65358 10.4222 6.65526 10.3715 6.657C10.3317 6.65838 10.292 6.66002 10.2522 6.66095C10.2422 6.66118 10.2323 6.66175 10.2223 6.66193V10.2197H19.9973C19.9991 10.1432 20 10.0695 20 9.99748C20 7.57766 19.1312 5.25811 17.5482 3.43829Z" fill="#D0F7C6"/>
<path d="M9.65927 14.2261C9.61029 14.2277 9.56131 14.2292 9.51251 14.2315C9.47727 14.2332 9.44211 14.2355 9.40696 14.2375C9.3598 14.2403 9.31265 14.2429 9.26562 14.2463C9.2298 14.2489 9.19407 14.252 9.15833 14.2549C9.11207 14.2587 9.0658 14.2626 9.01971 14.267C8.9838 14.2704 8.94802 14.2743 8.9122 14.2782C8.86642 14.2831 8.82065 14.2881 8.77505 14.2936C8.73914 14.2979 8.70331 14.3026 8.66754 14.3074C8.6222 14.3134 8.57691 14.3195 8.53176 14.3261C8.49603 14.3313 8.46043 14.3368 8.42478 14.3424C8.37967 14.3495 8.3346 14.3568 8.28963 14.3645C8.25429 14.3705 8.21896 14.3767 8.18371 14.3832C8.13874 14.3914 8.09385 14.3999 8.049 14.4087C8.01403 14.4155 7.97914 14.4225 7.94429 14.4298C7.89927 14.4391 7.85443 14.4488 7.80958 14.4587C7.77532 14.4663 7.741 14.474 7.70678 14.482C7.66154 14.4925 7.61647 14.5035 7.5714 14.5146C7.53794 14.523 7.50447 14.5312 7.47109 14.5398C7.42536 14.5517 7.37981 14.5641 7.33429 14.5766C7.30189 14.5854 7.26949 14.5942 7.23718 14.6034C7.19074 14.6167 7.14447 14.6306 7.09825 14.6445C7.06723 14.6539 7.03616 14.663 7.00527 14.6726C6.95736 14.6876 6.90972 14.7032 6.86207 14.7189C6.83318 14.7284 6.80416 14.7377 6.77536 14.7474C6.72487 14.7646 6.6747 14.7825 6.62447 14.8004C6.59878 14.8096 6.57296 14.8184 6.54741 14.8278C6.49043 14.8487 6.43381 14.8705 6.37727 14.8924C6.35883 14.8996 6.34025 14.9063 6.32181 14.9137C6.17079 14.9733 6.02127 15.0366 5.87336 15.1037C5.8599 15.1098 5.84661 15.1162 5.83323 15.1224C5.7735 15.1498 5.7139 15.1775 5.65474 15.2062C5.63181 15.2172 5.60914 15.2289 5.5863 15.2401C5.53688 15.2645 5.4875 15.2889 5.43848 15.314C5.41208 15.3276 5.3859 15.3417 5.35959 15.3556C5.31457 15.3792 5.26959 15.4029 5.22492 15.4272C5.19674 15.4426 5.16888 15.4584 5.14083 15.4741C5.09839 15.4977 5.05599 15.5214 5.01385 15.5458C4.98483 15.5625 4.95608 15.5797 4.92719 15.5967C4.88648 15.6208 4.84585 15.6449 4.80545 15.6696C4.77608 15.6875 4.74692 15.7058 4.71768 15.7241C4.67826 15.7488 4.63897 15.7735 4.59986 15.7987C4.5703 15.8178 4.54097 15.8371 4.51159 15.8565C4.47332 15.8818 4.4351 15.9073 4.39714 15.9331C4.36763 15.9531 4.33826 15.9734 4.30892 15.9939C4.27155 16.0199 4.23435 16.0461 4.19728 16.0726C4.16795 16.0937 4.13875 16.1148 4.10963 16.1362C4.07301 16.163 4.03661 16.1901 4.00035 16.2174C3.97132 16.2394 3.94235 16.2613 3.9135 16.2836C3.87768 16.3112 3.84204 16.3392 3.80652 16.3674C3.77786 16.3901 3.74919 16.4129 3.72075 16.4359C3.6855 16.4646 3.65052 16.4936 3.61559 16.5226C3.58746 16.5461 3.55928 16.5695 3.53137 16.5933C3.49657 16.623 3.46208 16.6531 3.42764 16.6833C3.40017 16.7073 3.37266 16.7312 3.34541 16.7556C3.31093 16.7865 3.27684 16.8179 3.24266 16.8493C3.21599 16.8738 3.18924 16.8981 3.16284 16.9229C3.12835 16.9553 3.0943 16.9883 3.06021 17.0213C3.03475 17.0459 3.0091 17.0702 2.98386 17.0951C2.97928 17.0996 2.97479 17.1043 2.97021 17.1088C4.80159 18.9214 7.20327 19.9396 9.77767 19.995V14.2225C9.77189 14.2226 9.76611 14.2226 9.76033 14.2227C9.72664 14.2234 9.693 14.2249 9.65927 14.2261Z" fill="#D0F7C6"/>
<path d="M16.9398 17.0214C16.9056 16.9885 16.8715 16.9553 16.837 16.9229C16.8107 16.8981 16.784 16.8739 16.7575 16.8496C16.7232 16.8181 16.689 16.7865 16.6544 16.7556C16.6273 16.7313 16.5998 16.7074 16.5725 16.6835C16.5379 16.6532 16.5033 16.623 16.4684 16.5933C16.4406 16.5696 16.4126 16.5462 16.3846 16.5229C16.3495 16.4937 16.3143 16.4645 16.279 16.4358C16.2507 16.4129 16.2222 16.3903 16.1937 16.3677C16.158 16.3393 16.1222 16.3112 16.0862 16.2834C16.0575 16.2613 16.0287 16.2394 15.9998 16.2177C15.9634 16.1902 15.9268 16.163 15.89 16.136C15.8611 16.1148 15.832 16.0938 15.8029 16.0729C15.7656 16.0461 15.7282 16.0198 15.6906 15.9937C15.6615 15.9734 15.6323 15.9533 15.6031 15.9333C15.5648 15.9073 15.5263 15.8817 15.4878 15.8563C15.4587 15.8371 15.4296 15.8179 15.4003 15.799C15.3609 15.7737 15.3214 15.7487 15.2817 15.724C15.2527 15.7058 15.2238 15.6877 15.1946 15.6698C15.154 15.645 15.1131 15.6208 15.0722 15.5966C15.0435 15.5797 15.015 15.5626 14.9862 15.546C14.9439 15.5215 14.9012 15.4977 14.8585 15.4739C14.8307 15.4584 14.8031 15.4427 14.7751 15.4274C14.7302 15.4029 14.6849 15.3791 14.6395 15.3553C14.6135 15.3416 14.5877 15.3277 14.5615 15.3142C14.5122 15.2889 14.4624 15.2643 14.4125 15.2397C14.3901 15.2286 14.3678 15.2172 14.3453 15.2063C14.2856 15.1775 14.2256 15.1496 14.1654 15.122C14.1524 15.116 14.1395 15.1098 14.1266 15.1039C13.9786 15.0368 13.829 14.9734 13.6779 14.9137C13.6599 14.9067 13.6417 14.9 13.6237 14.893C13.5667 14.8709 13.5097 14.849 13.4524 14.8279C13.427 14.8186 13.4014 14.8099 13.3759 14.8008C13.3255 14.7828 13.2751 14.7648 13.2244 14.7476C13.1957 14.7378 13.1669 14.7287 13.1382 14.7192C13.0904 14.7035 13.0426 14.6878 12.9945 14.6728C12.9638 14.6632 12.9328 14.6541 12.9019 14.6448C12.8556 14.6308 12.8092 14.6169 12.7626 14.6036C12.7304 14.5944 12.698 14.5857 12.6657 14.5767C12.6202 14.5642 12.5745 14.5518 12.5287 14.54C12.4954 14.5313 12.462 14.5231 12.4286 14.5148C12.3835 14.5037 12.3383 14.4926 12.293 14.4821C12.2588 14.4741 12.2246 14.4665 12.1904 14.4589C12.1455 14.4489 12.1006 14.4392 12.0555 14.4299C12.0207 14.4226 11.9858 14.4157 11.9509 14.4088C11.906 14.4 11.8611 14.3915 11.8161 14.3833C11.7808 14.3769 11.7456 14.3706 11.7102 14.3646C11.6652 14.3569 11.6202 14.3496 11.5751 14.3426C11.5394 14.337 11.5038 14.3314 11.4681 14.3262C11.4229 14.3197 11.3776 14.3135 11.3323 14.3075C11.2965 14.3028 11.2607 14.2981 11.2248 14.2937C11.1792 14.2882 11.1334 14.2832 11.0876 14.2783C11.0518 14.2745 11.016 14.2706 10.9801 14.2671C10.934 14.2626 10.8877 14.2588 10.8415 14.255C10.8057 14.2521 10.77 14.249 10.7342 14.2464C10.6872 14.243 10.64 14.2404 10.5928 14.2377C10.5576 14.2356 10.5225 14.2333 10.4873 14.2317C10.4384 14.2293 10.3895 14.2278 10.3405 14.2262C10.3068 14.2251 10.2731 14.2236 10.2394 14.2228C10.2336 14.2227 10.2278 14.2227 10.222 14.2226V19.9952C12.7965 19.9398 15.1981 18.9216 17.0295 17.109C17.0249 17.1045 17.0204 17.0998 17.0158 17.0953C16.9908 17.0703 16.9652 17.046 16.9398 17.0214Z" fill="#D0F7C6"/>
</svg>
